<svg xmlns="http://www.w3.org/2000/svg" viewBox="0 0 256 256"><rect width="256" height="256" fill="#F7F4ED"></rect><g transform="translate(16, -117.65) scale(1.646)" fill="#0A55C7"><path d="M5.99,191.31h18.2v6.52H0v-97.19h24.19v5.87H5.99v84.8Z"></path></g><g transform="translate(-343.92, -117.97) scale(1.646)" fill="#0A55C7"><path d="M348.53,107.32h-18.2v-6.52h24.19v97.19h-24.19v-5.87h18.2v-84.8Z"></path></g><g transform="translate(8.50, -49.99) scale(1.414)" fill="#10100B"><path d="M52.5,133.61h-13.64v-8.06h35.77v8.06h-13.64v41.43h-8.48v-41.43Z"></path><path d="M100.9,125.55h8.62l19.23,49.48h-8.55l-4.52-11.73h-20.93l-4.52,11.73h-8.55l19.23-49.48ZM97.79,155.53h14.85l-7.42-19.3-7.42,19.3Z"></path></g></svg>