<svg xmlns="http://www.w3.org/2000/svg" viewBox="0 0 1280 640" width="1280" height="640">
  <defs></defs>
  <rect width="1280" height="640" fill="#F7F4ED"></rect>

  
  <path fill="none" stroke="#0A55C7" stroke-width="2.5" d="M 1216 64 L 1216 160 M 1216 64 L 1120 64"></path>
  <path fill="none" stroke="#0A55C7" stroke-width="2.5" d="M 64 576 L 64 480 M 64 576 L 160 576"></path>

  
  <text x="640" y="124" text-anchor="middle" font-family="Plex Mono" font-size="16" letter-spacing="2" fill="#5A5650" font-weight="500">
    TRUST AND AUTHENTICATION REGISTRY FOR INTEGRITY IN DIGITAL EUROPE
  </text>

  
  <g transform="translate(365.32, 23.49) scale(1.55)">
    <path fill="#0A55C7" d="M348.53,107.32h-18.2v-6.52h24.19v97.19h-24.19v-5.87h18.2v-84.8Z"></path>
    <g fill="#10100B">
      <path d="M52.5,133.61h-13.64v-8.06h35.77v8.06h-13.64v41.43h-8.48v-41.43Z"></path><path d="M100.9,125.55h8.62l19.23,49.48h-8.55l-4.52-11.73h-20.93l-4.52,11.73h-8.55l19.23-49.48ZM97.79,155.53h14.85l-7.42-19.3-7.42,19.3Z"></path><path d="M142.65,125.55h16.26c9.83,0,16.4,6.36,16.4,15.41,0,7.42-3.96,13.08-11.03,14.84l12.37,19.23h-9.9l-11.73-18.66h-3.89v18.66h-8.48v-49.48ZM166.68,140.96c0-4.88-3.39-7.35-8.84-7.35h-6.72v14.7h6.72c5.44,0,8.84-2.47,8.84-7.35Z"></path>
      <path d="M196.04,125.55h8.48v49.48h-8.48v-49.48Z"></path><path d="M267.6,150.3c0,14.28-10.04,24.74-24.46,24.74h-15.97v-49.48h15.97c14.42,0,24.46,10.46,24.46,24.74ZM258.97,150.3c0-9.05-6.08-16.68-15.69-16.68h-7.64v33.37h7.64c9.61,0,15.69-7.71,15.69-16.68Z"></path><path d="M291.96,145.63h19.79v8.06h-19.79v13.29h21.91v8.06h-30.4v-49.48h29.97v8.06h-21.49v12.02Z"></path>
    </g>
    <path fill="#0A55C7" d="M5.99,191.31h18.2v6.52H0v-97.19h24.19v5.87H5.99v84.8Z"></path>
  </g>

  
  <text x="640" y="500" text-anchor="middle" font-family="Plex Serif" font-size="46" fill="#10100B" font-weight="400">
    Verification is the default.
  </text>
  <text x="640" y="558" text-anchor="middle" font-family="Plex Serif" font-size="46" fill="#0A55C7" font-weight="400">
    Identification is optional.
  </text>
</svg>